<?xml version="1.0" standalone="no"?>
<!DOCTYPE svg PUBLIC "-//W3C//DTD SVG 20010904//EN"
 "http://www.w3.org/TR/2001/REC-SVG-20010904/DTD/svg10.dtd">
<svg version="1.0" xmlns="http://www.w3.org/2000/svg"
 width="500.000000pt" height="500.000000pt" viewBox="0 0 500.000000 500.000000"
 preserveAspectRatio="xMidYMid meet">
<metadata>
Created by potrace 1.11, written by Peter Selinger 2001-2013
</metadata>
<g transform="translate(0.000000,500.000000) scale(0.100000,-0.100000)"
fill="#000000" stroke="none">
<path d="M0 2500 l0 -2500 2500 0 2500 0 0 2500 0 2500 -2500 0 -2500 0 0
-2500z m2681 1054 c102 -17 284 -74 337 -105 18 -10 36 -19 39 -19 3 0 3 27
-1 60 l-7 60 121 0 120 0 0 -350 0 -351 -101 3 -101 3 -19 73 c-52 204 -199
356 -395 407 -72 19 -222 19 -290 1 -180 -48 -332 -211 -410 -438 -100 -296
-78 -702 54 -963 119 -236 307 -347 563 -331 123 8 253 30 324 57 l55 20 0
252 c0 139 3 262 6 275 l7 23 -114 -2 -114 -2 -3 117 -3 116 406 0 405 0 0
-100 0 -99 -49 -7 c-70 -9 -108 -36 -133 -92 -20 -44 -22 -69 -26 -348 l-5
-301 -96 -6 c-71 -4 -133 -16 -241 -47 -230 -66 -345 -90 -475 -96 -379 -20
-690 115 -889 386 -343 465 -246 1250 197 1605 86 69 215 140 305 170 141 45
363 58 533 29z"/>
</g>
</svg>
